<?xml version="1.0" encoding="UTF-8"?>
<!DOCTYPE svg PUBLIC "-//W3C//DTD SVG 1.1//EN" "http://www.w3.org/Graphics/SVG/1.1/DTD/svg11.dtd">
<!-- Creator: CorelDRAW (Evaluation Version) -->
<svg xmlns="http://www.w3.org/2000/svg" xml:space="preserve" width="8.66142in" height="4.33071in" version="1.1" style="shape-rendering:geometricPrecision; text-rendering:geometricPrecision; image-rendering:optimizeQuality; fill-rule:evenodd; clip-rule:evenodd"
viewBox="0 0 8661.42 4330.71"
 xmlns:xlink="http://www.w3.org/1999/xlink"
 xmlns:xodm="http://www.corel.com/coreldraw/odm/2003">
 <defs>
  <style type="text/css">
   <![CDATA[
    .str0 {stroke:black;stroke-width:93.75;stroke-miterlimit:2.61313}
    .fil1 {fill:none}
    .fil0 {fill:black;fill-rule:nonzero}
   ]]>
  </style>
 </defs>
 <g id="Layer_x0020_1">
  <metadata id="CorelCorpID_0Corel-Layer"/>
  <polygon class="fil0" points="1636.41,2990.37 1017.66,1577.87 1244.74,1577.87 1703.07,2707.04 2115.57,1577.87 2219.74,1577.87 1669.74,2990.37 "/>
  <path id="_1" class="fil0" d="M2590.57 2982.04c-61.11,0 -118.4,-9.03 -171.87,-27.08 -53.47,-18.06 -93.41,-34.03 -119.79,-47.92l0 -79.17c16.67,8.33 39.93,18.06 69.79,29.17 29.86,11.11 62.5,20.83 97.92,29.17 35.41,8.33 69.09,12.5 101.04,12.5 73.61,0 126.39,-16.67 158.33,-50 31.94,-33.33 47.92,-67.36 47.92,-102.08 0,-41.67 -15.28,-77.08 -45.83,-106.25 -30.56,-29.17 -68.4,-55.91 -113.54,-80.21 -45.14,-24.31 -90.62,-50.35 -136.46,-78.13 -45.83,-27.78 -84.03,-60.76 -114.58,-98.96 -30.56,-38.19 -45.83,-85.76 -45.83,-142.7 0,-37.5 9.37,-75.35 28.13,-113.54 18.75,-38.19 49.31,-70.49 91.67,-96.87 42.36,-26.39 99.65,-39.58 171.88,-39.58 73.61,0 134.37,6.59 182.29,19.79 47.92,13.19 83.68,24.65 107.29,34.37l-20.83 137.5c-55.56,-30.56 -108.33,-54.17 -158.33,-70.83 -50,-16.67 -92.36,-27.78 -127.08,-33.33 -37.5,0 -67.36,13.89 -89.58,41.67 -22.22,27.78 -33.33,56.94 -33.33,87.5 0,40.28 15.97,74.65 47.92,103.13 31.94,28.47 71.53,55.21 118.75,80.21 47.22,25 94.09,51.39 140.62,79.17 46.53,27.78 85.77,60.42 117.71,97.92 31.94,37.5 47.92,84.72 47.92,141.67 0,75 -30.21,139.24 -90.62,192.71 -60.42,53.47 -147.57,80.21 -261.46,80.21z"/>
  <path id="_2" class="fil0" d="M3407.24 2982.04c-56.94,0 -104.86,-16.67 -143.75,-50 -38.89,-33.33 -58.33,-89.58 -58.33,-168.75l0 -672.91 -168.75 -33.33 0 -41.67 168.75 0 0 -75 175 -127.09 0 202.09 247.92 0 0 75 -247.92 0 0 683.33c0,38.89 7.99,69.44 23.96,91.67 15.97,22.22 46.18,33.33 90.62,33.33 19.44,0 40.97,-3.12 64.59,-9.37 23.61,-6.25 46.53,-13.54 68.75,-21.87l0 58.33c-30.56,13.89 -64.93,26.74 -103.13,38.54 -38.19,11.81 -77.43,17.71 -117.71,17.71z"/>
  <path id="_3" class="fil0" d="M4876 2957.04l0 -941.67 120.83 0 47.92 175c18.06,-30.56 43.41,-61.11 76.04,-91.67 32.64,-30.56 70.14,-57.29 112.5,-80.21 42.36,-22.92 85.76,-37.85 130.21,-44.79l20.83 143.75c-36.11,0 -75,7.64 -116.67,22.92 -41.67,15.28 -81.6,34.72 -119.79,58.33 -38.19,23.61 -70.49,47.92 -96.87,72.92l0 685.42 -175 0z"/>
  <path id="_4" class="fil0" d="M5911.41 2982.04c-86.11,0 -163.54,-18.06 -232.3,-54.17 -68.75,-36.11 -122.57,-88.89 -161.46,-158.33 -38.89,-69.44 -58.33,-154.17 -58.33,-254.17 0,-115.28 22.22,-211.81 66.67,-289.59 44.44,-77.78 102.78,-136.46 175,-176.04 72.22,-39.58 149.3,-59.37 231.25,-59.37 65.28,0 124.65,17.01 178.13,51.04 53.47,34.03 96.53,84.72 129.17,152.08 32.64,67.36 48.96,151.04 48.96,251.04l-664.58 0c0,108.33 17.01,193.4 51.04,255.21 34.03,61.8 78.47,105.21 133.33,130.21 54.86,25 112.15,37.5 171.87,37.5 54.17,0 102.08,-5.56 143.75,-16.67 41.67,-11.11 79.86,-24.3 114.58,-39.58l0 72.92c-43.06,25 -92.36,47.57 -147.92,67.71 -55.56,20.14 -115.28,30.21 -179.17,30.21zm-279.17 -600l487.5 0c-4.17,-62.5 -17.71,-113.19 -40.62,-152.08 -22.92,-38.89 -50,-68.41 -81.25,-88.54 -31.25,-20.14 -62.5,-34.03 -93.75,-41.67 -31.25,-7.64 -57.29,-11.46 -78.12,-11.46 -47.22,22.22 -88.54,59.38 -123.96,111.46 -35.42,52.08 -58.68,112.85 -69.79,182.29z"/>
  <path id="_5" class="fil0" d="M6732.24 2982.04c-61.11,0 -118.4,-9.03 -171.87,-27.08 -53.47,-18.06 -93.41,-34.03 -119.79,-47.92l0 -79.17c16.67,8.33 39.93,18.06 69.79,29.17 29.86,11.11 62.5,20.83 97.92,29.17 35.41,8.33 69.09,12.5 101.04,12.5 73.61,0 126.39,-16.67 158.33,-50 31.94,-33.33 47.92,-67.36 47.92,-102.08 0,-41.67 -15.28,-77.08 -45.83,-106.25 -30.56,-29.17 -68.4,-55.91 -113.54,-80.21 -45.14,-24.31 -90.62,-50.35 -136.46,-78.13 -45.83,-27.78 -84.03,-60.76 -114.58,-98.96 -30.56,-38.19 -45.83,-85.76 -45.83,-142.7 0,-37.5 9.37,-75.35 28.13,-113.54 18.75,-38.19 49.31,-70.49 91.67,-96.87 42.36,-26.39 99.65,-39.58 171.88,-39.58 73.61,0 134.37,6.59 182.29,19.79 47.92,13.19 83.68,24.65 107.29,34.37l-20.83 137.5c-55.56,-30.56 -108.33,-54.17 -158.33,-70.83 -50,-16.67 -92.36,-27.78 -127.08,-33.33 -37.5,0 -67.36,13.89 -89.58,41.67 -22.22,27.78 -33.33,56.94 -33.33,87.5 0,40.28 15.97,74.65 47.92,103.13 31.94,28.47 71.53,55.21 118.75,80.21 47.22,25 94.09,51.39 140.62,79.17 46.53,27.78 85.77,60.42 117.71,97.92 31.94,37.5 47.92,84.72 47.92,141.67 0,75 -30.21,139.24 -90.62,192.71 -60.42,53.47 -147.57,80.21 -261.46,80.21z"/>
  <path id="_6" class="fil0" d="M7417.66 2979.95c-31.94,0 -59.03,-11.11 -81.25,-33.33 -22.22,-22.22 -33.33,-49.3 -33.33,-81.25 0,-31.94 11.11,-59.38 33.33,-82.29 22.22,-22.92 49.31,-34.38 81.25,-34.38 31.94,0 59.37,11.46 82.29,34.38 22.92,22.91 34.37,50.35 34.37,82.29 0,31.94 -11.46,59.03 -34.37,81.25 -22.92,22.22 -50.35,33.33 -82.29,33.33z"/>
  <path class="fil1 str0" d="M3770.53 2100.39l920.09 0 0 546.89c0,170.37 -139.39,309.76 -309.77,309.76l-300.56 0c-170.37,0 -309.77,-139.39 -309.77,-309.76l0 -546.89z"/>
  <path class="fil1 str0" d="M4014.48 2226.28l-0.32 -181.61c0,-127.3 85.2,-231.45 189.35,-231.45l80.66 0c104.15,0 189.35,104.15 189.35,231.45l0 181.61"/>
 </g>
</svg>
